<?xml version="1.0" encoding="UTF-8" standalone="no"?>
<!DOCTYPE svg PUBLIC "-//W3C//DTD SVG 1.1//EN" "http://www.w3.org/Graphics/SVG/1.1/DTD/svg11.dtd">
<svg width="100%" height="100%" viewBox="0 0 512 512" version="1.1" xmlns="http://www.w3.org/2000/svg" xmlns:xlink="http://www.w3.org/1999/xlink" xml:space="preserve" xmlns:serif="http://www.serif.com/" style="fill-rule:evenodd;clip-rule:evenodd;stroke-linejoin:round;stroke-miterlimit:2;">
    <path d="M512,179.2L512,332.8C512,431.703 431.703,512 332.8,512L179.2,512C80.297,512 0,431.703 0,332.8L0,179.2C0,80.297 80.297,0 179.2,0L332.8,0C431.703,0 512,80.297 512,179.2Z" style="fill:rgb(0,96,57);"/>
    <g transform="matrix(2.5583,0,0,2.5583,102.5,102.5)">
        <path d="M103.707,44.074C104.936,47.444 103.197,51.178 99.826,52.407C96.456,53.636 92.722,51.897 91.493,48.526C86.683,35.332 74.063,26.5 60.019,26.5C41.642,26.5 26.519,41.622 26.519,60C26.519,78.378 41.642,93.5 60.019,93.5C73.109,93.5 84.962,85.828 90.407,74.101C88.909,72.124 86.576,70.65 83.565,69.491C78.215,67.432 71.017,66.5 62,66.5C58.413,66.5 55.5,63.587 55.5,60C55.5,56.413 58.413,53.5 62,53.5C72.983,53.5 81.718,54.851 88.235,57.359C96.13,60.397 101.133,65.164 103.617,71.241C104.228,72.737 104.261,74.407 103.707,75.926C97.03,94.241 79.513,106.5 60.019,106.5C34.51,106.5 13.519,85.509 13.519,60C13.519,34.491 34.51,13.5 60.019,13.5C79.513,13.5 97.03,25.759 103.707,44.074Z" style="fill:white;"/>
    </g>
</svg>
